<svg width="200" height="200" viewBox="0 0 200 200" fill="none" xmlns="http://www.w3.org/2000/svg">
<rect width="200" height="200" fill="white"/>
<path d="M99.996 190C92.809 190 85.5151 189.132 78.2338 187.317C54.9186 181.503 35.2621 166.956 22.8851 146.356C10.5071 125.754 6.89385 101.567 12.7113 78.2516C18.523 54.9325 33.0698 35.2714 53.6716 22.891C74.2721 10.5106 98.4579 6.89379 121.775 12.7086C169.917 24.7106 199.32 73.6413 187.318 121.783V121.784C177.127 162.64 140.328 190 99.996 190V190ZM99.8628 15.2964C84.6866 15.2964 69.7448 19.408 56.3985 27.4286C37.0088 39.0805 23.3178 57.5849 17.8478 79.5324C12.3726 101.476 15.7734 124.239 27.423 143.629C39.0718 163.017 57.5718 176.709 79.5146 182.181C124.823 193.476 170.88 165.808 182.181 120.503C193.477 75.1933 165.804 29.1414 120.494 17.8454C113.656 16.1402 106.734 15.2964 99.8628 15.2964V15.2964Z" fill="black"/>
<path d="M98.0372 159.958L85.0569 156.723L89.3089 139.685C87.3683 139.197 85.473 138.705 83.571 138.197L79.3105 155.29L66.3429 152.055L70.6512 134.743C70.1681 134.617 69.6831 134.491 69.1967 134.365C67.6511 133.962 66.0883 133.554 64.5078 133.158L49.4453 129.403L55.6859 115.009L56.7868 115.302C58.2034 115.678 59.6952 116.068 60.9644 116.393L60.9279 116.341L64.3372 117.185C64.9031 117.325 66.6117 117.748 67.5309 115.581L74.0168 89.5787L74.0158 89.5785L79.1583 68.9454C79.2534 66.5378 77.9909 65.0401 75.3018 64.3685L72.426 63.6507L72.4922 63.6059C71.1201 63.2728 69.3931 62.8669 67.7654 62.4942L66.4507 62.1928L69.8674 48.4796L86.7361 52.6913L86.7265 52.7388C88.0342 53.055 89.3774 53.3667 90.8583 53.7058L95.1333 36.5785L108.105 39.8141L103.933 56.5527C105.891 57.0001 107.815 57.446 109.701 57.9048L113.854 41.2472L126.833 44.4822L122.541 61.7019C132.791 65.3772 145.346 71.9851 143.148 86.688C141.991 94.5137 138.193 99.704 131.84 102.158C140.831 107.943 143.289 116.252 139.359 127.47C133.128 145.283 117.32 145.295 102.366 142.613L98.0372 159.958H98.0372ZM88.2663 154.794L96.1099 156.75L100.402 139.554L101.629 139.786C111.44 141.64 118.521 141.733 123.91 140.075C130.12 138.164 134.356 133.755 136.861 126.596C140.7 115.637 137.863 108.125 127.933 102.954L124.75 101.297L128.247 100.491C135.342 98.8543 139.36 94.2128 140.53 86.3008V86.2987C142.066 76.0326 135.899 69.0943 120.534 63.8024L119.388 63.4074L123.625 46.4106L115.783 44.4556L111.63 61.1094L110.346 60.7894C107.659 60.1199 104.878 59.4822 102.028 58.8331L100.711 58.5332L104.897 41.7419L97.0606 39.7874L92.7983 56.8636L91.534 56.5754C89.0281 56.0039 86.9457 55.5254 84.8591 55.0061L83.6323 54.7008L83.6429 54.647L71.7958 51.6891L69.6713 60.2153C73.2848 61.0448 75.0534 61.4638 75.9426 61.8017L75.9429 61.8004C81.3273 63.1451 81.9206 67.0232 81.7952 69.2153L81.758 69.4596L76.9014 88.9457L76.8127 88.9237L76.7887 88.9971L76.8841 89.0209L70.0533 116.405L70.0187 116.491C68.9103 119.24 66.5479 120.46 63.7008 119.754L63.707 119.729C62.724 119.604 60.8936 119.13 57.2084 118.153L53.1165 127.59L65.1499 130.591C66.7399 130.989 68.3108 131.398 69.8641 131.803C70.7758 132.041 71.6818 132.276 72.5817 132.508L73.854 132.835L69.5503 150.127L77.3827 152.081L81.6551 134.939L82.9587 135.292C85.7026 136.034 88.409 136.736 91.2326 137.439L92.5183 137.758L88.2664 154.794H88.2663ZM105.224 128.824C98.966 128.824 92.1065 127.012 87.6935 125.846C86.9364 125.646 86.2596 125.467 85.6824 125.323L84.3967 125.004L90.7546 99.5168L92.0388 99.8369C92.7386 100.011 93.5937 100.203 94.562 100.42C101.763 102.035 113.817 104.737 118.15 111.758C119.702 114.273 120.101 117.104 119.336 120.174C118.612 123.078 116.996 125.29 114.532 126.747C111.957 128.27 108.682 128.824 105.224 128.824V128.824ZM87.6036 123.085C87.8486 123.149 88.1043 123.217 88.3697 123.287C94.3862 124.877 106.904 128.184 113.185 124.469C115.042 123.37 116.214 121.756 116.767 119.534C117.362 117.149 117.077 115.06 115.897 113.148C112.15 107.076 100.332 104.427 93.983 103.003C93.5244 102.9 93.0906 102.803 92.6861 102.71L87.6036 123.085V123.085ZM109.895 94.7691C104.75 94.7691 99.2545 93.3021 95.7009 92.3534C95.0653 92.1836 94.4981 92.0321 94.0145 91.9117L92.7306 91.5914L98.5531 68.2361L99.8374 68.5564C100.423 68.7024 101.14 68.8611 101.953 69.0411C107.846 70.3462 117.708 72.5302 121.462 78.5956C122.925 80.9587 123.291 83.6615 122.552 86.6288C121.85 89.4405 120.315 91.5614 117.989 92.933C115.699 94.2831 112.854 94.7691 109.895 94.7691ZM95.9359 89.6765C96.0812 89.7152 96.2303 89.755 96.3836 89.7959C101.607 91.1902 111.33 93.785 116.645 90.6528C118.36 89.641 119.453 88.1151 119.983 85.9883C120.552 83.7086 120.299 81.7461 119.211 79.9886C116.045 74.873 106.506 72.7605 101.381 71.6255C101.068 71.5562 100.769 71.49 100.486 71.4265L95.9359 89.6764V89.6765Z" fill="black"/>
</svg>
