<svg width="940" height="800" viewBox="0 0 940 800" fill="none" xmlns="http://www.w3.org/2000/svg">
<path d="M260.735 205.053L222.749 167.949L208.159 182.885L201.077 175.968L238.432 137.725L245.514 144.643L230.925 159.579L268.91 196.683L260.735 205.053Z" fill="black"/>
<path d="M296.672 160.25L326.223 140.487L331.726 148.717L292.45 174.983L257.427 122.615L295.656 97.0488L301.16 105.278L272.656 124.34L296.672 160.25ZM280.964 138.382L306.999 120.971L312.352 128.976L286.318 146.387L280.964 138.382Z" fill="black"/>
<path d="M345.257 141.887L323.016 82.9438L347.267 73.7934C352.488 71.8237 357.277 70.9633 361.635 71.2099C365.993 71.4579 369.776 72.7719 372.983 75.1528C376.191 77.5346 378.62 80.9135 380.272 85.2924C381.903 89.6157 382.291 93.7021 381.434 97.5512C380.579 101.402 378.601 104.873 375.504 107.965C372.406 111.059 368.247 113.589 363.027 115.559L344.922 122.39L347.879 115.695L356.203 137.757L345.257 141.887ZM348.324 116.874L341.523 113.38L359.122 106.74C363.949 104.918 367.193 102.509 368.851 99.5097C370.509 96.5122 370.639 93.1596 369.241 89.4545C367.843 85.7495 365.537 83.3339 362.322 82.2055C359.107 81.0786 355.085 81.4252 350.257 83.2465L332.658 89.8867L335.425 82.687L348.324 116.874V116.874ZM383.823 127.336L360.848 111.571L372.553 107.155L395.612 122.888L383.823 127.336Z" fill="black"/>
<path d="M408.711 119.2L403.119 56.4482L412.711 55.5938L444.224 98.9575L439.204 99.4053L462.105 51.1919L471.698 50.3374L477.469 113.073L466.262 114.071L462.212 68.6216L464.453 68.4219L445.103 108.819L439.814 109.29L413.087 72.999L415.777 72.7593L419.826 118.209L408.711 119.2Z" fill="black"/>
<path d="M496.703 116.296L504.106 53.7319L515.725 55.1069L508.323 117.67L496.703 116.296V116.296Z" fill="black"/>
<path d="M527.948 119.752L546.921 59.6772L556.104 62.5771L579.144 120.82L574.595 119.383L589.232 73.0396L600.216 76.5088L581.243 136.584L572.061 133.684L549.107 75.4688L553.656 76.9053L539.02 123.249L527.948 119.752V119.752Z" fill="black"/>
<path d="M620.493 159.799C613.244 155.208 608.855 149.551 607.325 142.829C605.794 136.106 607.502 128.843 612.446 121.037L631.422 91.0811L641.306 97.3418L622.523 126.994C619.056 132.468 617.713 137.194 618.497 141.17C619.28 145.147 621.826 148.499 626.135 151.229C630.443 153.957 634.55 154.819 638.455 153.812C642.359 152.806 646.046 149.565 649.514 144.09L668.296 114.439L678.029 120.604L659.053 150.559C654.109 158.365 648.27 163.012 641.539 164.501C634.807 165.99 627.792 164.423 620.493 159.799Z" fill="black"/>
<path d="M671.162 200.683C667.714 197.173 664.927 193.329 662.8 189.153C660.672 184.977 659.455 181.147 659.147 177.666L668.47 174.184C668.823 177.369 669.831 180.751 671.498 184.33C673.163 187.909 675.363 191.088 678.096 193.871C680.408 196.224 682.536 197.877 684.481 198.828C686.423 199.778 688.169 200.165 689.721 199.988C691.27 199.811 692.602 199.176 693.715 198.083C695.084 196.737 695.702 195.162 695.571 193.357C695.438 191.552 694.85 189.628 693.808 187.582C692.764 185.537 691.51 183.361 690.047 181.058C688.582 178.753 687.213 176.355 685.943 173.861C684.669 171.368 683.715 168.877 683.081 166.39C682.445 163.902 682.425 161.42 683.02 158.943C683.615 156.466 685.11 154.051 687.507 151.696C689.947 149.299 692.823 147.754 696.14 147.063C699.454 146.371 703.036 146.763 706.885 148.24C710.732 149.716 714.675 152.509 718.711 156.618C721.361 159.314 723.645 162.326 725.569 165.652C727.49 168.979 728.777 172.256 729.427 175.487L720.357 179.226C719.577 176.037 718.428 173.088 716.904 170.38C715.378 167.672 713.649 165.334 711.715 163.366C709.486 161.097 707.377 159.509 705.393 158.6C703.406 157.692 701.627 157.358 700.056 157.599C698.483 157.839 697.141 158.506 696.029 159.599C694.658 160.945 694.03 162.509 694.142 164.292C694.253 166.075 694.84 167.979 695.905 170.004C696.968 172.029 698.232 174.215 699.697 176.561C701.16 178.907 702.529 181.305 703.802 183.757C705.073 186.207 706.028 188.677 706.663 191.165C707.298 193.652 707.33 196.125 706.757 198.58C706.184 201.036 704.72 203.42 702.366 205.732C699.969 208.088 697.113 209.611 693.798 210.302C690.482 210.994 686.89 210.591 683.021 209.093C679.153 207.595 675.199 204.792 671.162 200.683Z" fill="black"/>
<path d="M188.465 565.979L196.654 579.358L192.927 581.639L182.044 563.854L205.755 549.344L216.348 566.652L212.622 568.933L204.724 556.027L188.465 565.979ZM198.385 559.44L205.6 571.229L201.975 573.447L194.761 561.659L198.385 559.44Z" fill="black"/>
<path d="M197.002 587.507L219.471 571.138L222.511 575.311L203.573 589.107L212.131 600.855L208.6 603.428L197.002 587.507Z" fill="black"/>
<path d="M218.737 608.739L228.959 620.638L225.646 623.484L212.059 607.67L233.146 589.555L246.37 604.947L243.056 607.794L233.197 596.317L218.737 608.739ZM227.486 600.7L236.491 611.183L233.268 613.952L224.262 603.469L227.486 600.7Z" fill="black"/>
<path d="M239.59 638.052C238.054 636.555 236.887 634.926 236.088 633.167C235.289 631.407 234.864 629.597 234.813 627.734C234.761 625.872 235.071 624.066 235.742 622.316C236.413 620.567 237.479 618.943 238.939 617.446C240.399 615.949 241.995 614.844 243.728 614.129C245.46 613.414 247.263 613.064 249.135 613.078C251.008 613.093 252.833 613.477 254.612 614.231C256.39 614.986 258.048 616.112 259.583 617.61C261.213 619.199 262.427 620.931 263.228 622.802C264.028 624.674 264.357 626.612 264.214 628.617L259.635 628.534C259.653 627.036 259.407 625.658 258.895 624.4C258.383 623.144 257.616 622.016 256.592 621.018C255.549 620.001 254.431 619.242 253.236 618.742C252.041 618.242 250.82 617.995 249.576 618.002C248.331 618.008 247.112 618.262 245.921 618.764C244.728 619.265 243.633 620.027 242.635 621.051C241.637 622.074 240.902 623.188 240.43 624.393C239.958 625.597 239.735 626.821 239.76 628.065C239.784 629.311 240.062 630.523 240.591 631.706C241.121 632.889 241.907 633.988 242.949 635.005C243.973 636.003 245.119 636.742 246.389 637.223C247.659 637.703 249.052 637.905 250.568 637.83L250.765 642.405C248.764 642.6 246.813 642.324 244.913 641.58C243.013 640.836 241.238 639.66 239.59 638.052Z" fill="black"/>
<path d="M256.789 652.979L271.704 634.909L264.599 629.045L267.38 625.676L285.573 640.692L282.792 644.062L275.686 638.196L260.77 656.267L256.789 652.979Z" fill="black"/>
<path d="M272.169 665.327L287.998 642.474L297.4 648.986C299.424 650.389 300.937 651.912 301.94 653.557C302.943 655.201 303.413 656.904 303.353 658.666C303.292 660.428 302.674 662.157 301.498 663.854C300.337 665.53 298.95 666.695 297.338 667.35C295.725 668.004 293.969 668.156 292.07 667.807C290.17 667.457 288.208 666.581 286.184 665.18L279.165 660.317L282.337 659.713L276.413 668.267L272.169 665.327ZM282.021 660.17L281.585 656.824L288.407 661.551C290.279 662.847 291.968 663.421 293.472 663.271C294.976 663.122 296.226 662.328 297.221 660.892C298.217 659.456 298.515 658.013 298.119 656.562C297.722 655.112 296.588 653.738 294.717 652.442L287.894 647.716L291.201 646.916L282.021 660.17ZM287.121 675.684L287.086 663.389L291.624 666.532L291.691 678.85L287.121 675.684Z" fill="black"/>
<path d="M297.283 682.045L311.556 658.189L315.987 660.841L301.713 684.695L297.283 682.045Z" fill="black"/>
<path d="M320.422 695.335C318.513 694.358 316.916 693.148 315.633 691.704C314.348 690.26 313.407 688.656 312.807 686.892C312.207 685.129 311.969 683.312 312.093 681.441C312.216 679.572 312.754 677.706 313.707 675.844C314.659 673.982 315.856 672.453 317.301 671.259C318.744 670.063 320.362 669.196 322.155 668.656C323.948 668.116 325.805 667.943 327.728 668.138C329.65 668.333 331.566 668.919 333.475 669.896C335.502 670.932 337.175 672.226 338.494 673.776C339.811 675.328 340.698 677.083 341.154 679.04L336.756 680.315C336.33 678.879 335.687 677.636 334.827 676.585C333.966 675.536 332.899 674.686 331.626 674.034C330.329 673.371 329.036 672.978 327.747 672.854C326.457 672.729 325.219 672.854 324.032 673.229C322.844 673.603 321.755 674.205 320.765 675.037C319.775 675.869 318.954 676.922 318.304 678.194C317.652 679.467 317.28 680.748 317.185 682.038C317.09 683.328 317.239 684.563 317.631 685.746C318.023 686.927 318.646 688.004 319.502 688.978C320.358 689.95 321.434 690.768 322.73 691.431C324.003 692.082 325.317 692.449 326.672 692.532C328.027 692.616 329.418 692.397 330.843 691.877L332.385 696.189C330.531 696.966 328.586 697.28 326.551 697.131C324.515 696.982 322.472 696.384 320.422 695.335H320.422Z" fill="black"/>
<path d="M347.328 707.337L356.335 681.037L360.355 682.414L365.277 705.55L363.173 704.829L381.057 689.504L385.077 690.881L376.145 717.206L371.448 715.598L377.972 696.549L378.911 696.871L363.861 709.683L361.644 708.924L357.384 689.498L358.51 689.884L351.987 708.932L347.328 707.337Z" fill="black"/>
<path d="M397.923 722.794C395.828 722.337 393.957 721.563 392.312 720.472C390.667 719.38 389.323 718.058 388.281 716.501C387.239 714.946 386.54 713.242 386.186 711.39C385.832 709.537 385.873 707.615 386.308 705.623C386.748 703.606 387.516 701.829 388.61 700.293C389.704 698.758 391.048 697.506 392.641 696.539C394.235 695.573 396 694.936 397.937 694.627C399.874 694.318 401.903 694.396 404.025 694.859C406.119 695.316 407.985 696.084 409.62 697.158C411.255 698.234 412.588 699.542 413.62 701.081C414.652 702.621 415.344 704.323 415.696 706.189C416.047 708.054 416.003 709.996 415.562 712.013C415.121 714.03 414.353 715.808 413.259 717.344C412.165 718.88 410.826 720.139 409.243 721.121C407.66 722.103 405.902 722.742 403.967 723.037C402.033 723.332 400.018 723.252 397.923 722.794ZM398.889 718.371C400.259 718.671 401.571 718.713 402.824 718.499C404.077 718.285 405.223 717.845 406.263 717.177C407.303 716.51 408.189 715.647 408.923 714.587C409.655 713.527 410.174 712.3 410.479 710.903C410.784 709.506 410.831 708.175 410.62 706.909C410.408 705.644 409.963 704.489 409.283 703.446C408.602 702.403 407.737 701.523 406.689 700.807C405.639 700.09 404.429 699.582 403.058 699.282C401.687 698.982 400.362 698.938 399.084 699.146C397.805 699.355 396.645 699.799 395.602 700.479C394.559 701.159 393.666 702.022 392.923 703.064C392.18 704.108 391.656 705.328 391.352 706.725C391.052 708.097 391.021 709.417 391.258 710.689C391.495 711.96 391.946 713.122 392.61 714.175C393.275 715.229 394.144 716.115 395.22 716.838C396.295 717.561 397.518 718.071 398.889 718.371Z" fill="black"/>
<path d="M419.84 726.637L422.889 699.005L427.113 699.471L442.09 722.699L439.998 722.468L442.349 701.152L447.402 701.71L444.353 729.342L440.13 728.875L425.192 705.652L427.284 705.883L424.932 727.198L419.84 726.637Z" fill="black"/>
<path d="M458.684 725.507L474.369 725.772L474.295 730.141L453.448 729.788L453.919 701.992L474.209 702.336L474.135 706.704L459.007 706.447L458.684 725.507ZM458.488 713.628L472.307 713.862L472.235 718.11L458.416 717.877L458.488 713.628Z" fill="black"/>
<path d="M487.941 729.457L487.226 718.479L488.618 721.532L475.236 702.426L480.704 702.069L491.499 717.484L488.407 717.686L497.071 701.003L502.144 700.673L491.393 721.352L492.338 718.146L493.053 729.123L487.941 729.457V729.457Z" fill="black"/>
<path d="M520.115 726.121L515.14 698.771L520.22 697.847L524.412 720.899L538.713 718.299L539.494 722.597L520.115 726.121Z" fill="black"/>
<path d="M541.173 722.372L545.931 692.262L550.835 690.925L570.254 714.445L565.005 715.876L548.07 694.52L550.062 693.976L546.269 720.983L541.173 722.372ZM545.036 714.651L545.351 710.367L559.795 706.43L562.202 709.972L545.036 714.651Z" fill="black"/>
<path d="M575.145 712.668L565.281 686.677L577.496 682.041C580.59 680.867 583.187 680.582 585.285 681.187C587.384 681.793 588.823 683.123 589.604 685.177C590.13 686.563 590.256 687.867 589.984 689.09C589.711 690.311 589.138 691.393 588.263 692.334C587.388 693.274 586.32 693.984 585.057 694.464L585.218 692.873C586.678 692.319 588.091 692.088 589.456 692.178C590.823 692.268 592.031 692.694 593.085 693.456C594.139 694.218 594.952 695.352 595.525 696.862C596.37 699.09 596.18 701.145 594.954 703.025C593.729 704.907 591.445 706.481 588.103 707.75L575.145 712.668ZM578.534 707.049L586.368 704.075C588.151 703.399 589.412 702.581 590.152 701.62C590.892 700.66 591.013 699.523 590.515 698.212C590.027 696.925 589.185 696.161 587.989 695.921C586.793 695.681 585.304 695.898 583.522 696.575L575.317 699.689L573.894 695.939L581.097 693.206C582.754 692.576 583.929 691.791 584.619 690.849C585.31 689.907 585.43 688.843 584.979 687.654C584.519 686.441 583.717 685.712 582.576 685.465C581.435 685.219 580.035 685.41 578.377 686.04L571.545 688.633L578.534 707.049Z" fill="black"/>
<path d="M616.736 695.464C614.819 696.425 612.877 696.999 610.912 697.186C608.947 697.372 607.071 697.189 605.282 696.635C603.493 696.081 601.878 695.195 600.438 693.978C598.997 692.761 597.821 691.24 596.907 689.418C595.98 687.572 595.459 685.708 595.344 683.826C595.229 681.943 595.487 680.126 596.118 678.372C596.748 676.619 597.72 675.013 599.033 673.555C600.344 672.097 601.97 670.881 603.911 669.907C605.827 668.945 607.76 668.368 609.707 668.176C611.655 667.983 613.514 668.162 615.285 668.709C617.056 669.258 618.664 670.147 620.111 671.375C621.557 672.605 622.743 674.143 623.669 675.988C624.596 677.834 625.117 679.698 625.232 681.58C625.347 683.463 625.098 685.284 624.485 687.043C623.871 688.802 622.906 690.405 621.588 691.851C620.27 693.297 618.653 694.502 616.736 695.464ZM614.705 691.417C615.959 690.788 617.005 689.996 617.845 689.041C618.684 688.087 619.298 687.023 619.688 685.851C620.076 684.678 620.222 683.449 620.126 682.165C620.03 680.881 619.66 679.599 619.02 678.321C618.378 677.044 617.577 675.979 616.618 675.128C615.657 674.276 614.584 673.66 613.4 673.276C612.215 672.894 610.99 672.753 609.723 672.855C608.456 672.958 607.196 673.324 605.942 673.953C604.687 674.583 603.628 675.381 602.766 676.347C601.903 677.314 601.28 678.389 600.897 679.573C600.514 680.758 600.362 681.989 600.441 683.268C600.519 684.547 600.879 685.824 601.521 687.103C602.15 688.357 602.956 689.403 603.941 690.242C604.924 691.082 606.006 691.702 607.184 692.103C608.364 692.504 609.597 692.647 610.888 692.532C612.178 692.418 613.451 692.047 614.705 691.417Z" fill="black"/>
<path d="M636.084 684.67L621.198 661.192L630.857 655.067C632.937 653.749 634.929 652.948 636.834 652.665C638.739 652.382 640.491 652.611 642.09 653.352C643.689 654.095 645.041 655.337 646.147 657.081C647.239 658.804 647.773 660.534 647.747 662.274C647.722 664.015 647.178 665.691 646.116 667.305C645.055 668.919 643.485 670.385 641.406 671.703L634.195 676.275L634.872 673.118L640.445 681.905L636.084 684.67ZM635.17 673.588L631.919 672.686L638.929 668.242C640.851 667.022 642.037 665.691 642.485 664.247C642.933 662.803 642.69 661.343 641.753 659.867C640.818 658.392 639.605 657.555 638.115 657.354C636.624 657.155 634.918 657.665 632.995 658.885L625.986 663.329L626.536 659.971L635.17 673.588ZM651.446 674.93L640.108 670.175L644.769 667.219L656.141 671.952L651.446 674.93Z" fill="black"/>
<path d="M658.628 670.326L651.503 640.687L655.523 637.575L682.463 651.875L678.161 655.206L654.343 641.954L655.976 640.689L662.805 667.094L658.628 670.326ZM659.243 661.714L657.895 657.636L669.734 648.471L673.313 650.823L659.243 661.714Z" fill="black"/>
<path d="M689.171 645.573L673.377 628.265L666.572 634.476L663.627 631.248L681.053 615.348L683.997 618.575L677.191 624.785L692.985 642.094L689.171 645.573Z" fill="black"/>
<path d="M712.491 623.014C711.043 624.596 709.434 625.823 707.664 626.698C705.894 627.572 704.076 628.069 702.206 628.189C700.338 628.31 698.514 628.058 696.734 627.433C694.954 626.809 693.313 625.809 691.809 624.432C690.286 623.037 689.135 621.481 688.357 619.763C687.578 618.046 687.171 616.255 687.136 614.392C687.101 612.529 687.436 610.683 688.143 608.853C688.849 607.022 689.935 605.307 691.402 603.705C692.849 602.123 694.45 600.896 696.201 600.022C697.951 599.148 699.751 598.652 701.602 598.533C703.451 598.415 705.271 598.671 707.061 599.305C708.85 599.938 710.506 600.951 712.03 602.346C713.553 603.74 714.703 605.297 715.482 607.015C716.26 608.732 716.677 610.522 716.731 612.384C716.784 614.247 716.453 616.088 715.738 617.909C715.021 619.73 713.939 621.432 712.491 623.014ZM709.152 619.956C710.099 618.922 710.795 617.809 711.24 616.618C711.683 615.428 711.878 614.215 711.824 612.98C711.769 611.746 711.468 610.546 710.92 609.38C710.372 608.214 709.571 607.148 708.516 606.183C707.462 605.218 706.334 604.509 705.134 604.056C703.933 603.603 702.711 603.408 701.468 603.472C700.224 603.536 699.03 603.842 697.882 604.389C696.735 604.937 695.688 605.728 694.741 606.763C693.792 607.798 693.088 608.92 692.626 610.13C692.164 611.341 691.965 612.567 692.03 613.811C692.094 615.055 692.391 616.26 692.919 617.426C693.449 618.593 694.241 619.658 695.295 620.624C696.33 621.571 697.457 622.262 698.675 622.695C699.894 623.129 701.125 623.323 702.369 623.277C703.614 623.232 704.818 622.926 705.983 622.359C707.148 621.792 708.204 620.992 709.152 619.956Z" fill="black"/>
<path d="M726.714 606.055L704.45 589.407L711.299 580.247C712.774 578.275 714.351 576.818 716.031 575.876C717.71 574.934 719.43 574.524 721.188 574.649C722.947 574.773 724.652 575.454 726.306 576.69C727.939 577.912 729.053 579.34 729.648 580.975C730.243 582.61 730.332 584.371 729.914 586.256C729.495 588.143 728.549 590.071 727.074 592.043L721.962 598.881L721.473 595.688L729.806 601.92L726.714 606.055ZM721.918 596.021L718.559 596.336L723.529 589.689C724.893 587.865 725.527 586.199 725.432 584.69C725.337 583.182 724.59 581.903 723.191 580.857C721.791 579.811 720.36 579.46 718.896 579.803C717.433 580.146 716.019 581.23 714.656 583.054L709.685 589.701L709.005 586.366L721.918 596.021ZM737.606 591.487L725.319 591.076L728.624 586.655L740.936 587.034L737.606 591.487Z" fill="black"/>
<path d="M748.008 575.863L738.659 570.065L741.954 570.706L718.627 570.492L721.516 565.835L740.334 566.01L738.701 568.643L730.16 551.896L732.84 547.576L743.419 568.344L741.36 565.712L750.708 571.51L748.008 575.863Z" fill="black"/>
<path d="M91.802 351.209C96.1565 317.108 105.104 283.924 118.567 252.093C137.705 206.845 165.107 166.204 200.012 131.299C234.917 96.3945 275.558 68.9923 320.806 49.8541C367.641 30.0443 417.404 20 468.713 20C520.021 20 569.784 30.0443 616.62 49.8541C661.868 68.9923 702.508 96.3945 737.414 131.299C772.318 166.204 799.721 206.845 818.859 252.093C832.415 284.143 841.395 317.565 845.716 351.914C852.157 349.985 858.638 348.184 865.162 346.526C839.025 150.896 671.494 0 468.713 0C266.135 0 98.7374 150.593 72.343 345.936C75.8441 346.806 79.3353 347.709 82.8135 348.651C85.8231 349.471 88.8162 350.332 91.802 351.209H91.802Z" fill="black"/>
<path d="M818.859 547.907C799.721 593.155 772.319 633.796 737.414 668.701C702.509 703.606 661.868 731.008 616.62 750.146C569.785 769.956 520.021 780 468.713 780C417.405 780 367.641 769.956 320.806 750.146C275.558 731.008 234.917 703.606 200.012 668.701C165.107 633.796 137.705 593.155 118.567 547.907C101.494 507.541 91.6812 464.998 89.2943 421.167C82.3185 416.062 75.4652 410.785 68.7488 405.331C71.6023 623.788 249.579 800 468.713 800C687.164 800 864.708 624.882 868.639 407.369C861.899 412.77 855.021 417.991 848.028 423.046C845.465 466.214 835.689 508.117 818.859 547.907Z" fill="black"/>
<path d="M685.254 491.466C673.419 519.448 656.471 544.582 634.883 566.17C613.295 587.759 588.161 604.706 560.179 616.541C531.22 628.789 500.447 635 468.713 635C436.979 635 406.206 628.789 377.246 616.541C349.265 604.706 324.131 587.759 302.543 566.17C280.954 544.582 264.007 519.448 252.172 491.466C240.773 464.516 234.611 435.993 233.81 406.589C227.026 403.726 220.333 400.681 213.744 397.52C213.736 398.347 213.713 399.171 213.713 400C213.713 540.833 327.88 655 468.713 655C609.545 655 723.713 540.833 723.713 400C723.713 399.562 723.699 399.128 723.696 398.691C717.087 401.821 710.379 404.831 703.577 407.644C702.659 436.675 696.516 464.839 685.254 491.466Z" fill="black"/>
<path d="M252.172 308.534C264.008 280.552 280.955 255.418 302.543 233.83C324.131 212.241 349.266 195.294 377.247 183.459C406.206 171.211 436.98 165 468.713 165C500.447 165 531.221 171.211 560.18 183.459C588.161 195.294 613.295 212.241 634.883 233.83C656.472 255.418 673.419 280.552 685.254 308.534C691.512 323.33 696.184 338.603 699.267 354.233C704.412 347.509 709.737 340.93 715.202 334.487C686.284 225.403 586.895 145 468.713 145C351.329 145 252.487 224.321 222.821 332.282C228.251 338.616 233.553 345.08 238.681 351.686C241.76 336.944 246.254 322.525 252.172 308.534Z" fill="black"/>
<path d="M468.681 569.979C455.105 569.979 441.327 568.341 427.574 564.912C383.533 553.929 346.403 526.45 323.023 487.538C299.642 448.622 292.817 402.936 303.806 358.894C314.784 314.845 342.262 277.707 381.177 254.321C420.09 230.935 465.776 224.103 509.821 235.087C600.757 257.758 656.297 350.185 633.627 441.122V441.123C614.377 518.299 544.866 569.979 468.681 569.979ZM468.43 239.975C439.763 239.975 411.538 247.742 386.328 262.892C349.702 284.902 323.841 319.855 313.508 361.313C303.166 402.764 309.59 445.762 331.595 482.388C353.599 519.011 388.544 544.873 429.993 555.209C515.578 576.546 602.577 524.282 623.924 438.703C645.26 353.117 592.989 266.127 507.401 244.79C494.484 241.569 481.409 239.975 468.43 239.975Z" fill="black"/>
<path d="M464.981 513.232L440.462 507.121L448.494 474.938C444.828 474.016 441.248 473.087 437.656 472.127L429.608 504.415L405.113 498.304L413.251 465.603C412.338 465.365 411.422 465.127 410.503 464.888C407.584 464.127 404.632 463.357 401.646 462.609L373.194 455.516L384.982 428.327L387.062 428.88C389.738 429.59 392.555 430.326 394.953 430.94L394.884 430.842L401.324 432.437C402.393 432.701 405.62 433.5 407.357 429.406L419.608 380.29L419.606 380.29L429.32 341.315C429.5 336.767 427.115 333.938 422.035 332.669L416.603 331.313L416.728 331.229C414.136 330.6 410.874 329.833 407.8 329.129L405.316 328.56L411.77 302.656L443.634 310.612L443.616 310.702C446.086 311.299 448.623 311.888 451.421 312.528L459.496 280.176L483.999 286.288L476.117 317.906C479.817 318.751 483.451 319.593 487.014 320.46L494.859 288.995L519.375 295.105L511.268 327.632C530.628 334.575 554.344 347.057 550.194 374.83C548.008 389.612 540.832 399.416 528.832 404.052C545.817 414.979 550.459 430.674 543.035 451.864C531.266 485.513 501.405 485.534 473.158 480.469L464.981 513.232H464.981ZM446.525 503.479L461.341 507.172L469.448 474.689L471.767 475.128C490.299 478.631 503.673 478.807 513.853 475.674C525.583 472.064 533.585 463.736 538.317 450.213C545.569 429.513 540.209 415.323 521.452 405.556L515.441 402.425L522.045 400.902C535.448 397.811 543.038 389.043 545.248 374.098V374.094C548.149 354.702 536.499 341.596 507.477 331.6L505.312 330.854L513.315 298.748L498.501 295.055L490.657 326.513L488.232 325.909C483.156 324.644 477.904 323.439 472.52 322.213L470.031 321.647L477.939 289.929L463.136 286.237L455.085 318.493L452.697 317.949C447.964 316.869 444.03 315.965 440.089 314.984L437.771 314.408L437.791 314.306L415.413 308.719L411.4 324.824C418.225 326.391 421.566 327.183 423.246 327.821L423.246 327.818C433.417 330.358 434.538 337.684 434.301 341.825L434.231 342.286L425.057 379.094L424.889 379.053L424.844 379.191L425.024 379.236L412.121 430.964L412.056 431.126C409.962 436.318 405.5 438.623 400.122 437.29L400.134 437.242C398.277 437.007 394.819 436.111 387.858 434.265L380.129 452.092L402.859 457.759C405.863 458.512 408.83 459.284 411.764 460.049C413.486 460.498 415.198 460.943 416.897 461.381L419.301 461.998L411.171 494.662L425.966 498.353L434.036 465.973L436.499 466.639C441.682 468.041 446.794 469.368 452.128 470.694L454.556 471.298L446.525 503.479H446.525ZM478.556 454.423C466.736 454.423 453.779 450.999 445.443 448.797C444.012 448.419 442.734 448.081 441.644 447.81L439.215 447.207L451.225 399.062L453.651 399.667C454.972 399.997 456.588 400.358 458.417 400.769C472.02 403.819 494.787 408.924 502.973 422.186C505.905 426.936 506.658 432.284 505.213 438.082C503.846 443.568 500.793 447.746 496.139 450.499C491.276 453.376 485.088 454.423 478.556 454.423ZM445.273 443.581C445.736 443.702 446.218 443.83 446.72 443.963C458.085 446.966 481.731 453.214 493.594 446.195C497.102 444.12 499.316 441.071 500.362 436.873C501.485 432.368 500.947 428.423 498.718 424.812C491.639 413.342 469.316 408.337 457.323 405.647C456.457 405.453 455.637 405.27 454.873 405.095L445.273 443.581ZM487.379 390.094C477.661 390.094 467.281 387.323 460.568 385.531C459.367 385.21 458.296 384.924 457.383 384.697L454.957 384.092L465.956 339.975L468.382 340.58C469.488 340.856 470.842 341.156 472.378 341.496C483.509 343.961 502.138 348.086 509.23 359.543C511.992 364.007 512.685 369.113 511.287 374.718C509.962 380.029 507.063 384.035 502.669 386.626C498.344 389.176 492.97 390.094 487.379 390.094ZM461.012 380.475C461.286 380.548 461.568 380.623 461.858 380.7C471.724 383.334 490.091 388.235 500.13 382.319C503.37 380.408 505.434 377.525 506.436 373.508C507.51 369.202 507.032 365.495 504.978 362.175C498.997 352.512 480.978 348.521 471.297 346.377C470.706 346.247 470.142 346.122 469.606 346.001L461.012 380.475V380.475Z" fill="black"/>
<path d="M657.603 422.565C694.557 367.928 743.843 322.459 792.763 278.799L802.874 315.862C808.727 337.269 814.129 360.081 818.613 381.848C819.734 387.362 821.901 398.523 822.907 404.061L789.682 388.87C828.224 370.58 868.16 354.362 909.383 342.604C918.806 340.017 929.23 337.254 938.905 335.495C934.114 340.4 929.135 344.951 924.117 349.428C882.307 386.388 834.206 416.448 786.15 444.35C782.553 430.501 775.673 405.994 772.314 392.397C768.866 378.653 765.109 362.187 762.244 348.31C760.725 340.926 759.277 333.525 757.914 326.106L795.09 338.749C784.495 346.775 773.733 354.601 762.782 362.198C729.379 385.096 695.093 406.563 657.603 422.565Z" fill="black"/>
<path d="M282.302 422.565C244.815 406.565 210.524 385.095 177.122 362.198C166.172 354.601 155.41 346.775 144.815 338.749L181.991 326.106C180.628 333.525 179.18 340.926 177.661 348.31C174.789 362.187 171.046 378.654 167.591 392.398C164.194 405.888 157.4 430.674 153.755 444.351C105.691 416.438 57.6071 386.397 15.7884 349.428C10.7698 344.951 5.79085 340.4 1 335.495C10.6617 337.25 21.07 340.011 30.5224 342.604C71.7445 354.362 111.681 370.58 150.223 388.87L116.997 404.061C118.017 398.501 120.158 387.381 121.292 381.848C125.779 360.073 131.176 337.279 137.031 315.862L147.142 278.799C196.071 322.478 245.334 367.912 282.302 422.565Z" fill="black"/>
</svg>
